{"title":"Game.Of.Death.2.1981.UNCUT.1080p.BluRay.x264-TUSAHD","uid":11994718,"size":8285876663,"categoryP":"video","categoryS":"hd___movies","magnet":"?xt=urn:btih:497f81e149796f3a954beb1a3632ade93bed5d11&amp;dn=Game.Of.Death.2.1981.UNCUT.1080p.BluRay.x264-TUSAHD&amp;tr=udp%3A%2F%2Ftracker.openbittorrent.com%3A80&amp;tr=udp%3A%2F%2Fopen.demonii.com%3A1337&amp;tr=udp%3A%2F%2Ftracker.coppersurfer.tk%3A6969&amp;tr=udp%3A%2F%2Fexodus.desync.com%3A6969","seeders":0,"leechers":1,"uploader":"vickey1992","files":2,"time":1433600784,"description":"Video\nID                                       : 1\nFormat                                   : AVC\nFormat/Info                              : Advanced Video Codec\nFormat profile                           : &lt;a class=&quot;__cf_email__&quot; href=&quot;/cdn-cgi/l/email-protection&quot; data-cfemail=&quot;d098b9b7b8909ce4fee1&quot;&gt;[email&amp;#160;protected]&lt;/a&gt;&lt;script data-cfhash='f9e31' type=&quot;text/javascript&quot;&gt;\n/* &lt;![CDATA[ */!function(){try{var t=&quot;currentScript&quot;in document?document.currentScript:function(){for(var t=document.getElementsByTagName(&quot;script&quot;),e=t.length;e--;)if(t[e].getAttribute(&quot;data-cfhash&quot;))return t[e]}();if(t&amp;&amp;t.previousSibling){var e,r,n,i,c=t.previousSibling,a=c.getAttribute(&quot;data-cfemail&quot;);if(a){for(e=&quot;&quot;,r=parseInt(a.substr(0,2),16),n=2;a.length-n;n+=2)i=parseInt(a.substr(n,2),16)^r,e+=String.fromCharCode(i);e=document.createTextNode(e),c.parentNode.replaceChild(e,c)}t.parentNode.removeChild(t);}}catch(u){}}()/* ]]&gt; */&lt;/script&gt;\nFormat settings, CABAC                   : Yes\nFormat settings, ReFrames                : 10 frames\nCodec ID                                 : V_MPEG4/ISO/AVC\nDuration                                 : 1h 35mn\nBit rate                                 : 10 000 Kbps\nWidth                                    : 1 916 pixels\nHeight                                   : 816 pixels\nDisplay aspect ratio                     : 2.35:1\nFrame rate mode                          : Constant\nFrame rate                               : 23.976 fps\nColor space                              : YUV\nChroma subsampling                       : 4:2:0\nBit depth                                : 8 bits\nScan type                                : Progressive\nBits/(Pixel*Frame)                       : 0.267\nStream size                              : 6.55 GiB (85%)\nTitle                                    : Bruce.Lee.Tower.Of.Death.1981.Uncut.DTS-HD.DTS.1080p.BluRay.x264.HQ-TUSAHD\nWriting library                          : x264 core 114 r1924 08d04a4\nEncoding settings                        : cabac=1 / ref=10 / deblock=1:0:0 / analyse=0x3:0x133 / me=tesa / subme=10 / psy=1 / psy_rd=1.00:0.00 / mixed_ref=0 / me_range=16 / chroma_me=1 / trellis=2 / 8x8dct=1 / cqm=0 / deadzone=21,11 / fast_pskip=1 / chroma_qp_offset=-2 / threads=9 / sliced_threads=0 / nr=0 / decimate=1 / interlaced=0 / constrained_intra=0 / bframes=10 / b_pyramid=0 / b_adapt=2 / b_bias=0 / direct=1 / weightb=1 / open_gop=0 / weightp=2 / keyint=240 / keyint_min=24 / scenecut=40 / intra_refresh=0 / rc_lookahead=40 / rc=2pass / mbtree=1 / bitrate=10000 / ratetol=1.0 / qcomp=0.60 / qpmin=0 / qpmax=69 / qpstep=4 / cplxblur=20.0 / qblur=0.5 / vbv_maxrate=25000 / vbv_bufsize=25000 / nal_hrd=none / ip_ratio=1.40 / aq=1:1.00\nLanguage                                 : English\nDefault                                  : Yes\nForced                                   : No\n\nAudio\nID                                       : 2\nFormat                                   : DTS\nFormat/Info                              : Digital Theater Systems\nMode                                     : 16\nFormat settings, Endianness              : Big\nCodec ID                                 : A_DTS\nDuration                                 : 1h 35mn\nBit rate mode                            : Constant\nBit rate                                 : 1 509 Kbps\nChannel(s)                               : 6 channels\nChannel positions                        : Front: L C R, Side: L R, LFE\nSampling rate                            : 48.0 KHz\nBit depth                                : 24 bits\nCompression mode                         : Lossy\nStream size                              : 1.01 GiB (13%)\nTitle                                    : English DTS\nLanguage                                 : English\nDefault                                  : Yes\nForced                                   : No\n\nText #1\nID                                       : 3\nFormat                                   : VobSub\nMuxing mode                              : zlib\nCodec ID                                 : S_VOBSUB\nCodec ID/Info                            : The same subtitle format used on DVDs\nTitle                                    : English\nLanguage                                 : English\nDefault                                  : Yes\nForced                                   : No\n\nText #2\nID                                       : 4\nFormat                                   : VobSub\nMuxing mode                              : zlib\nCodec ID                                 : S_VOBSUB\nCodec ID/Info                            : The same subtitle format used on DVDs\nTitle                                    : Chinese\nLanguage                                 : Chinese\nDefault                                  : No\nForced                                   : No\n\nMenu\n00:00:00.000                             : en:00:00:00.000\n00:02:38.992                             : en:00:02:38.992\n00:05:52.269                             : en:00:05:52.269\n00:09:34.866                             : en:00:09:34.866\n00:13:23.678                             : en:00:13:23.678\n00:18:15.261                             : en:00:18:15.261\n00:20:26.392                             : en:00:20:26.392\n00:25:44.501                             : en:00:25:44.501\n00:31:22.631                             : en:00:31:22.631\n00:39:07.220                             : en:00:39:07.220\n00:43:23.559                             : en:00:43:23.559\n00:50:12.009                             : en:00:50:12.009\n00:53:50.519                             : en:00:53:50.519\n00:58:38.181                             : en:00:58:38.181\n01:01:53.418                             : en:01:01:53.418\n01:04:37.415                             : en:01:04:37.415\n01:11:49.931                             : en:01:11:49.931\n01:18:47.890                             : en:01:18:47.890\n01:24:31.692                             : en:01:24:31.692\n01:33:45.078                             : en:01:33:45.078","torrent":{"xt":"urn:btih:497f81e149796f3a954beb1a3632ade93bed5d11","amp;dn":"Game.Of.Death.2.1981.UNCUT.1080p.BluRay.x264-TUSAHD","amp;tr":["udp%3A%2F%2Ftracker.openbittorrent.com%3A80","udp%3A%2F%2Fopen.demonii.com%3A1337","udp%3A%2F%2Ftracker.coppersurfer.tk%3A6969","udp%3A%2F%2Fexodus.desync.com%3A6969"],"infoHash":"497f81e149796f3a954beb1a3632ade93bed5d11","infoHashBuffer":{"type":"Buffer","data":[73,127,129,225,73,121,111,58,149,75,235,26,54,50,173,233,59,237,93,17]},"announce":[],"urlList":[]}}